<!DOCTYPE svg PUBLIC "-//W3C//DTD SVG 20010904//EN" "http://www.w3.org/TR/2001/REC-SVG-20010904/DTD/svg10.dtd">
<svg version="1.0" xmlns="http://www.w3.org/2000/svg" width="64px" height="64px" viewBox="0 0 640 640" preserveAspectRatio="xMidYMid meet">
<g id="layer101" fill="#a5f7d0" stroke="none">
 <path d="M310 611 c0 -5 -20 -39 -44 -76 -34 -49 -41 -66 -28 -64 29 3 40 -1 56 -17 39 -38 2 -106 -67 -125 -106 -29 -139 -44 -153 -71 -18 -34 -18 -95 0 -127 13 -24 14 -23 31 28 22 67 55 106 118 137 27 14 61 37 74 50 l25 25 23 -25 c12 -13 45 -36 73 -50 59 -30 104 -81 121 -138 16 -51 32 -39 38 29 8 77 -29 109 -164 143 -46 12 -83 49 -83 86 0 28 43 64 70 57 28 -7 25 4 -11 44 -17 20 -38 51 -47 69 -15 32 -32 45 -32 25z m26 -72 c10 -17 -13 -36 -27 -22 -12 12 -4 33 11 33 5 0 12 -5 16 -11z m4 -56 c-17 -12 -23 -12 -40 0 -19 13 -18 14 20 14 38 0 39 -1 20 -14z"/>
 <path d="M233 453 c-19 -7 -16 -20 7 -26 27 -7 36 -35 17 -54 -13 -14 -21 -13 -71 6 -76 28 -92 27 -132 -13 -30 -30 -34 -40 -34 -87 l0 -54 43 48 c43 48 82 67 143 67 43 0 86 35 82 68 -3 27 -35 53 -55 45z"/>
 <path d="M367 442 c-24 -26 -21 -49 8 -77 18 -18 35 -25 65 -25 58 0 101 -21 143 -71 l37 -44 0 54 c0 47 -4 57 -34 87 -40 40 -56 41 -132 13 -50 -19 -58 -20 -71 -6 -19 19 -10 47 17 54 24 6 26 19 4 27 -21 8 -19 9 -37 -12z"/>
 <path d="M208 270 c-75 -40 -101 -127 -58 -197 30 -50 86 -72 61 -25 -27 50 -8 155 39 215 26 32 12 35 -42 7z"/>
 <path d="M393 258 c13 -18 29 -47 36 -65 13 -32 11 -124 -3 -156 -13 -29 13 -20 50 17 30 30 34 40 34 86 0 63 -24 101 -80 130 -55 28 -65 25 -37 -12z"/>
 </g>

</svg>